<svg id="Common_Area" data-name="Common Area" xmlns="http://www.w3.org/2000/svg" width="229.18" height="109.208" viewBox="0 0 229.18 109.208">
  <path id="Path_5811" data-name="Path 5811" d="M0,.428V108.2l228.18-.269V.269Z" transform="translate(0.502 0.503)" fill="#fff"/>
  <path id="Path_5811_-_Outline" data-name="Path 5811 - Outline" d="M229.18.272V108.935L0,109.208V.43H.5Zm-.995,107.667V1.271L1,1.432V108.2Z" transform="translate(0 0)" fill="#b4ded1"/>
  <g id="F_B_Area" data-name="F&amp;B Area" transform="translate(104.04 45.101)" opacity="0.4">
    <path id="F_B_Area-2" data-name="F&amp;B Area" d="M.98,15V4.921H7.048V6.607H2.665V9.12H6.208V10.8H2.665V15Zm10.668.209q-.841,0-1.587-.249t-1.245-.789q-.4-.442-.583-.961T8.028,12.1q0-.585.17-1.128T8.728,10q.14-.168.3-.3t.331-.237q-.414-.462-.625-.9T8.527,7.556q0-.883.474-1.585T10.3,4.966q.357-.135.724-.183t.716-.048q.661,0,1.27.2t1.037.646q.269.261.452.587t.274.663L13.1,7.188q-.1-.315-.343-.537-.213-.2-.5-.27T11.7,6.315q-.448,0-.8.163t-.506.433q-.166.271-.166.663,0,.349.129.559t.323.428q.127.137.309.305t.377.351L13.9,11.565q.007-.138.009-.305t0-.313l0-1.23h1.481v1.825q0,.38-.02.733t-.08.583l1.248,1.15-1.082,1.157-.97-.924q-.358.333-.784.544t-.86.3q-.316.074-.6.1T11.649,15.212Zm.065-1.6q.22,0,.412-.023T12.5,13.5q.26-.081.445-.184t.323-.215L10.6,10.655q-.183.07-.334.177t-.259.24q-.135.179-.207.414T9.731,12q0,.321.1.568t.257.447q.255.316.725.454T11.714,13.609ZM17.662,15V4.923h3.995q1.019,0,1.675.411t.975,1.046q.318.636.318,1.312,0,.839-.395,1.416t-1.074.781l0-.348q.954.217,1.448.9t.494,1.562q0,.9-.342,1.568t-1.019,1.05q-.677.377-1.67.377Zm1.707-1.591h2.484q.442,0,.79-.178t.547-.5q.2-.325.2-.773,0-.407-.174-.73t-.509-.513q-.335-.19-.807-.19h-2.53Zm0-4.463h2.264q.363,0,.651-.139t.458-.411q.169-.272.169-.677,0-.525-.339-.872T21.634,6.5H19.369ZM28.589,15,31.763,4.924h2.471L37.408,15H35.672L32.794,5.96h.373L30.325,15Zm1.772-2.186V11.24h5.286v1.574ZM38.666,15V4.925h4.159q.147,0,.379.011t.427.046q.872.135,1.442.584t.845,1.128q.275.68.275,1.511,0,1.235-.622,2.119t-1.908,1.1l-.718.063h-2.6V15Zm5.78,0-1.985-4.1,1.715-.378L46.357,15ZM40.349,9.9h2.407q.142,0,.315-.014t.323-.054q.417-.106.658-.371t.341-.6q.1-.337.1-.659t-.1-.659q-.1-.337-.341-.6t-.658-.371q-.15-.041-.323-.054T42.755,6.5H40.349ZM47.894,15V4.926h6.5V6.5H49.576V8.992h3.978V10.57H49.576v2.849h4.816V15Zm7.476,0,3.171-10.07h2.468L64.179,15H62.445L59.57,5.962h.373L57.1,15Zm1.77-2.184V11.239h5.28v1.573Z" transform="translate(0)" fill="#2d424b"/>
    <path id="F_B_Area_-_Outline" data-name="F&amp;B Area - Outline" d="M14.994,11.64l-1.016-.967q-.064.046-.13.09t-.133.084q-.067.041-.136.079T13.441,11q-.12.059-.241.111t-.243.094q-.122.043-.245.078t-.246.061l-.172.037-.169.03q-.084.014-.166.024t-.162.017l-.155.012-.157.008-.158.005-.158,0q-.23,0-.454-.017t-.443-.052q-.219-.034-.431-.086t-.417-.12a3.778,3.778,0,0,1-.415-.166,3.5,3.5,0,0,1-.381-.21,3.339,3.339,0,0,1-.347-.252,3.3,3.3,0,0,1-.31-.294l0-.005q-.115-.128-.216-.263t-.186-.276q-.085-.141-.156-.289a3.177,3.177,0,0,1-.124-.3Q7.23,9,7.189,8.846t-.07-.312q-.029-.159-.047-.322t-.024-.331V7.864q0-.165.012-.328T7.1,7.214q.024-.16.06-.317t.085-.311q.05-.159.114-.31T7.5,5.982a3.212,3.212,0,0,1,.368-.534q.035-.042.071-.081t.074-.078q.037-.038.076-.074t.079-.07Q8.11,5.07,8.061,5t-.094-.147q-.045-.073-.084-.146t-.075-.145a2.388,2.388,0,0,1-.114-.278,2.635,2.635,0,0,1-.082-.3,2.975,2.975,0,0,1-.049-.319q-.016-.165-.016-.338a3.558,3.558,0,0,1,.035-.5,3.283,3.283,0,0,1,.105-.48,3.19,3.19,0,0,1,.175-.454,3.276,3.276,0,0,1,.244-.427,3.172,3.172,0,0,1,.307-.387A3.047,3.047,0,0,1,8.773.742a3.115,3.115,0,0,1,.41-.269A3.377,3.377,0,0,1,9.642.263q.1-.038.2-.071t.208-.059q.1-.026.21-.047t.211-.034q.1-.013.2-.023t.2-.016q.1-.007.194-.01t.191,0q.184,0,.366.014t.36.042q.179.028.353.07t.345.1a3.164,3.164,0,0,1,.348.137,3,3,0,0,1,.323.174,2.939,2.939,0,0,1,.566.458q.079.077.152.159t.14.17q.067.087.127.179t.114.188q.053.095.1.191t.087.194q.04.1.074.2t.06.2l.137.509-2.624.562-.138-.432a.771.771,0,0,0-.035-.091.7.7,0,0,0-.1-.159.754.754,0,0,0-.067-.069l-.008-.008a.6.6,0,0,0-.06-.05.55.55,0,0,0-.064-.041.544.544,0,0,0-.069-.031.585.585,0,0,0-.074-.022q-.057-.013-.114-.023t-.113-.017q-.056-.007-.112-.01t-.11,0q-.084,0-.162.007a1.478,1.478,0,0,0-.152.022,1.255,1.255,0,0,0-.14.036,1.085,1.085,0,0,0-.129.051.973.973,0,0,0-.095.052.732.732,0,0,0-.08.057.578.578,0,0,0-.066.063.5.5,0,0,0-.051.07.522.522,0,0,0-.04.082.668.668,0,0,0-.029.095.881.881,0,0,0-.017.107,1.169,1.169,0,0,0-.006.119,1.12,1.12,0,0,0,.006.118.69.69,0,0,0,.014.086.411.411,0,0,0,.018.058.233.233,0,0,0,.017.035q.026.043.056.086t.063.088q.033.044.07.089t.077.09l.06.063.067.067.073.071.079.075,2.077,1.928,0-1.212h2.482V7.307q0,.1,0,.2t0,.193q0,.1-.007.189t-.009.185q0,.051-.007.1t-.008.1q0,.047-.01.091t-.011.087l1.332,1.227V.189h4.495a4.88,4.88,0,0,1,.556.031,3.943,3.943,0,0,1,.51.092A3.267,3.267,0,0,1,22.7.464a2.824,2.824,0,0,1,.412.212,3.489,3.489,0,0,1,.362.259,3.168,3.168,0,0,1,.314.295,2.992,2.992,0,0,1,.265.329,2.956,2.956,0,0,1,.215.363,3.654,3.654,0,0,1,.162.373,3.446,3.446,0,0,1,.116.381,3.319,3.319,0,0,1,.093.781,3.662,3.662,0,0,1-.03.478,3.107,3.107,0,0,1-.091.443,2.752,2.752,0,0,1-.151.407,2.58,2.58,0,0,1-.21.37l-.039.056-.041.055-.042.053L24,5.373q.075.058.146.121t.136.131q.066.068.127.141t.117.15a3.134,3.134,0,0,1,.257.421,3.024,3.024,0,0,1,.184.451,3.108,3.108,0,0,1,.111.479,3.389,3.389,0,0,1,.037.5,4.747,4.747,0,0,1-.025.492,4.142,4.142,0,0,1-.075.464,3.682,3.682,0,0,1-.124.435,3.368,3.368,0,0,1-.173.4,3.011,3.011,0,0,1-.23.381,2.9,2.9,0,0,1-.281.338,2.956,2.956,0,0,1-.331.293,3.17,3.17,0,0,1-.379.248,3.1,3.1,0,0,1-.415.192,3.558,3.558,0,0,1-.458.138,4.219,4.219,0,0,1-.5.083,5.1,5.1,0,0,1-.54.028h-4.9V9.835ZM8.706,9.6a2.334,2.334,0,0,0,.22.208,2.307,2.307,0,0,0,.244.177,2.465,2.465,0,0,0,.271.147,2.827,2.827,0,0,0,.3.119q.166.056.34.1t.352.07q.179.028.363.042t.373.014h.137l.136,0,.135-.007.134-.01.128-.014.132-.019.136-.025.139-.03.011,0q.092-.019.185-.046t.186-.059q.093-.033.185-.072T13,10.1q.09-.045.177-.1t.17-.109q.084-.058.163-.122t.156-.135l.344-.32.946.9.394-.421-1.1-1.012.075-.29q.012-.045.022-.1t.018-.114q.008-.061.014-.129t.011-.144q0-.084.009-.171t.006-.175q0-.088,0-.178t0-.181V5.983h-.481v.729q0,.038,0,.076t0,.079q0,.04,0,.082t0,.084q0,.044,0,.086t0,.083q0,.041,0,.079t0,.075l-.054,1.07L10.171,5l-.094-.088L9.99,4.826l-.08-.081-.073-.077L9.83,4.661q-.056-.062-.107-.125t-.1-.125q-.047-.062-.09-.125t-.081-.124a1.216,1.216,0,0,1-.089-.175,1.4,1.4,0,0,1-.064-.2,1.688,1.688,0,0,1-.038-.216,2.079,2.079,0,0,1-.013-.235,2.142,2.142,0,0,1,.015-.257,1.839,1.839,0,0,1,.045-.24,1.632,1.632,0,0,1,.075-.223,1.514,1.514,0,0,1,.1-.2,1.489,1.489,0,0,1,.136-.188,1.556,1.556,0,0,1,.165-.167,1.713,1.713,0,0,1,.194-.146,1.966,1.966,0,0,1,.222-.124,2.1,2.1,0,0,1,.232-.093,2.24,2.24,0,0,1,.246-.066,2.453,2.453,0,0,1,.26-.04q.133-.013.272-.013.083,0,.167,0t.168.015q.085.01.169.025t.17.034a1.593,1.593,0,0,1,.2.061,1.534,1.534,0,0,1,.365.2,1.609,1.609,0,0,1,.162.135q.041.037.078.077t.073.081q.035.041.067.085t.061.088l.706-.151L13.6,2.218,13.593,2.2l-.007-.013-.007-.013q-.037-.065-.078-.128t-.087-.122q-.046-.059-.1-.115t-.1-.108L13.2,1.692a1.985,1.985,0,0,0-.18-.167,1.906,1.906,0,0,0-.2-.141,1.973,1.973,0,0,0-.216-.116,2.2,2.2,0,0,0-.237-.092q-.133-.043-.269-.076t-.276-.054q-.14-.022-.282-.033T11.255,1L11.1,1l-.162.008-.164.014-.166.019q-.077.01-.154.025T10.3,1.1q-.077.019-.153.043T9.993,1.2a2.427,2.427,0,0,0-.32.145,2.107,2.107,0,0,0-.282.183,2.03,2.03,0,0,0-.245.224,2.185,2.185,0,0,0-.21.266,2.3,2.3,0,0,0-.171.3,2.169,2.169,0,0,0-.121.315,2.262,2.262,0,0,0-.072.335,2.589,2.589,0,0,0-.024.357q0,.117.01.225a2,2,0,0,0,.03.209,1.658,1.658,0,0,0,.05.192,1.4,1.4,0,0,0,.07.174q.045.092.1.188t.125.193q.069.1.149.2t.172.2l.39.435-.489.318L9.081,5.7l-.074.052-.074.054-.073.056-.06.05-.058.054-.056.058q-.028.03-.054.062l0,0a2.214,2.214,0,0,0-.255.371q-.054.1-.1.2t-.08.216Q8.158,7,8.13,7.12t-.046.24q-.018.121-.028.245t-.009.249q0,.128.018.252T8.1,8.35q.022.12.053.235t.07.225a2.173,2.173,0,0,0,.087.208q.049.1.109.2t.132.195Q8.624,9.511,8.706,9.6Zm8.976.664h3.9q.215,0,.412-.02a3.262,3.262,0,0,0,.376-.059,2.594,2.594,0,0,0,.339-.1,2.118,2.118,0,0,0,.3-.137,2.192,2.192,0,0,0,.256-.167,1.942,1.942,0,0,0,.221-.195,1.889,1.889,0,0,0,.186-.224,2.028,2.028,0,0,0,.154-.255,2.371,2.371,0,0,0,.126-.3,2.706,2.706,0,0,0,.09-.323,3.165,3.165,0,0,0,.054-.349q.018-.181.018-.374a2.412,2.412,0,0,0-.025-.349,2.094,2.094,0,0,0-.074-.327,2.011,2.011,0,0,0-.125-.306,2.15,2.15,0,0,0-.176-.288,1.668,1.668,0,0,0-.118-.146,1.611,1.611,0,0,0-.133-.13,1.646,1.646,0,0,0-.148-.115,1.778,1.778,0,0,0-.164-.1l-.081.035-.082.032-.084.03-.085.027-.144.043a1.812,1.812,0,0,1,.149.124,1.748,1.748,0,0,1,.25.289,1.786,1.786,0,0,1,.1.165,1.883,1.883,0,0,1,.1.223,1.937,1.937,0,0,1,.073.236,2.061,2.061,0,0,1,.044.248,2.258,2.258,0,0,1,.015.26,2.312,2.312,0,0,1-.017.285,2.025,2.025,0,0,1-.051.268,1.841,1.841,0,0,1-.085.25,1.75,1.75,0,0,1-.119.231,1.873,1.873,0,0,1-.149.209,1.819,1.819,0,0,1-.174.185,1.846,1.846,0,0,1-.2.159,1.954,1.954,0,0,1-.224.133,2.027,2.027,0,0,1-.234.1,2.121,2.121,0,0,1-.248.073,2.285,2.285,0,0,1-.261.044,2.523,2.523,0,0,1-.274.015H18.389V5.79h3.03q.1,0,.2.008t.195.023q.1.015.186.038t.177.053l-.013-.967-.035.021-.036.02-.037.019-.037.019a1.816,1.816,0,0,1-.2.082,1.905,1.905,0,0,1-.212.059,2.049,2.049,0,0,1-.223.035,2.248,2.248,0,0,1-.232.012H18.389V1.766h2.764a2.269,2.269,0,0,1,.384.031,1.817,1.817,0,0,1,.345.094,1.592,1.592,0,0,1,.3.156,1.574,1.574,0,0,1,.263.217,1.716,1.716,0,0,1,.21.261,1.617,1.617,0,0,1,.15.291,1.7,1.7,0,0,1,.09.32,1.961,1.961,0,0,1,.03.349,2.2,2.2,0,0,1-.015.263,1.863,1.863,0,0,1-.046.245,1.63,1.63,0,0,1-.076.226,1.494,1.494,0,0,1-.107.206q-.027.044-.057.086t-.061.081q-.032.039-.066.076t-.07.072l.349.079.072.017.071.018.07.02.069.021q.038-.032.074-.067t.07-.073q.034-.038.066-.079t.062-.085a1.6,1.6,0,0,0,.135-.24,1.748,1.748,0,0,0,.1-.268,2.106,2.106,0,0,0,.057-.3,2.728,2.728,0,0,0,.019-.329,2.351,2.351,0,0,0-.016-.278,2.3,2.3,0,0,0-.049-.273,2.408,2.408,0,0,0-.083-.269,2.7,2.7,0,0,0-.117-.268,1.965,1.965,0,0,0-.325-.467,2.149,2.149,0,0,0-.215-.2,2.53,2.53,0,0,0-.252-.179,1.845,1.845,0,0,0-.288-.146,2.312,2.312,0,0,0-.332-.1,3,3,0,0,0-.374-.063,3.932,3.932,0,0,0-.416-.021h-3.5Zm1.707-1.591h1.984a1.557,1.557,0,0,0,.156-.008,1.281,1.281,0,0,0,.145-.023,1.115,1.115,0,0,0,.135-.038,1.044,1.044,0,0,0,.126-.054.955.955,0,0,0,.106-.063.85.85,0,0,0,.093-.074.823.823,0,0,0,.081-.085.871.871,0,0,0,.069-.1.761.761,0,0,0,.055-.109A.851.851,0,0,0,22.379,8,1.038,1.038,0,0,0,22.4,7.87a1.346,1.346,0,0,0,.008-.148,1.28,1.28,0,0,0-.007-.137,1.06,1.06,0,0,0-.021-.127.936.936,0,0,0-.036-.118.891.891,0,0,0-.05-.11.773.773,0,0,0-.06-.094.751.751,0,0,0-.072-.084.8.8,0,0,0-.085-.074.928.928,0,0,0-.1-.065.814.814,0,0,0-.117-.054,1,1,0,0,0-.133-.039,1.263,1.263,0,0,0-.148-.024,1.611,1.611,0,0,0-.162-.008h-2.03Zm0-4.463h1.765q.063,0,.121-.006a1.047,1.047,0,0,0,.112-.017.9.9,0,0,0,.1-.028.832.832,0,0,0,.1-.039.64.64,0,0,0,.075-.043.556.556,0,0,0,.124-.111.643.643,0,0,0,.05-.071.508.508,0,0,0,.041-.082.672.672,0,0,0,.029-.1.911.911,0,0,0,.018-.11,1.239,1.239,0,0,0,.006-.124.958.958,0,0,0-.012-.155.719.719,0,0,0-.036-.137.641.641,0,0,0-.061-.122.7.7,0,0,0-.087-.109.561.561,0,0,0-.108-.087.647.647,0,0,0-.132-.061.877.877,0,0,0-.157-.037,1.3,1.3,0,0,0-.183-.012H19.389Zm44.99,7.048H61.6l-.695-2.184H57.676l-.686,2.184H46.915V.192h7.5V2.77H49.595V4.258h3.978V6.835H49.595v1.85h4.816v1.937L57.695.193h3.2Zm-2.05-1h.689l-.581-1.844v.659h-.486Zm-6.759,0h.688l.372-1.185h-.47V8.389Zm-7.657,0h5.5V9.684H48.6V5.836h3.978V5.257H48.6V1.77h4.816V1.192h-5.5ZM60.587,8.079,60.4,7.5H58.171l-.18.574Zm.546-1.573h.7L60.163,1.192H58.427l-.011.036h1.727L59.8,2.316Zm-2.649,0h1.6L59.28,3.972Zm-1.731,0h.685l1.315-4.188-.343-1.077ZM46.675,11.263H43.654l-1.7-3.516H40.368v3.516H37.687V.191H42.43l.095,0,.105,0,.117,0,.128.008L43,.221l.12.015.114.018a4.4,4.4,0,0,1,.477.1A3.762,3.762,0,0,1,44.149.5a3.293,3.293,0,0,1,.4.194,2.986,2.986,0,0,1,.355.24,3.268,3.268,0,0,1,.314.282,3.178,3.178,0,0,1,.5.668,3.344,3.344,0,0,1,.184.383,4,4,0,0,1,.136.394q.058.2.1.416t.059.435q.02.222.02.454a4.9,4.9,0,0,1-.045.671,4.247,4.247,0,0,1-.134.626,3.863,3.863,0,0,1-.223.579,3.737,3.737,0,0,1-.311.53q-.083.118-.176.226t-.2.207q-.1.1-.216.187t-.235.166Zm-2.4-1h.8l-1.314-2.7-.121.033-.124.029-.126.026-.129.023-.038,0-.19.017Zm-5.594,0h.684V6.748h2.1l-.211-.435.654-.144H39.369V1.77h2.989l.087,0,.09,0,.094.007.107.011.1.015.1.02.1.024a2.16,2.16,0,0,1,.266.086,1.865,1.865,0,0,1,.239.116,1.677,1.677,0,0,1,.212.144,1.591,1.591,0,0,1,.184.173,2.122,2.122,0,0,1,.146.18,2.051,2.051,0,0,1,.124.193,2.03,2.03,0,0,1,.1.205,2.056,2.056,0,0,1,.078.216q.03.1.053.2t.038.2q.015.1.023.2t.008.2q0,.1-.008.2t-.023.2q-.015.1-.038.2t-.053.2a2.056,2.056,0,0,1-.078.216,2.029,2.029,0,0,1-.1.2,2.051,2.051,0,0,1-.124.193,2.122,2.122,0,0,1-.146.18l-.053.055-.055.053-.058.05-.06.047.258-.057.263.54q.065-.047.126-.1t.116-.109q.056-.057.107-.118t.1-.128a2.774,2.774,0,0,0,.234-.4,2.833,2.833,0,0,0,.166-.436,3.217,3.217,0,0,0,.1-.476,3.981,3.981,0,0,0,.033-.52q0-.183-.015-.357t-.045-.34q-.03-.166-.075-.322a3.006,3.006,0,0,0-.1-.3,2.376,2.376,0,0,0-.128-.268,2.171,2.171,0,0,0-.157-.242,2.145,2.145,0,0,0-.187-.218,2.3,2.3,0,0,0-.219-.2,1.994,1.994,0,0,0-.25-.167,2.326,2.326,0,0,0-.286-.137,2.8,2.8,0,0,0-.32-.105,3.432,3.432,0,0,0-.354-.073l-.012,0-.083-.013-.088-.011L42.8,1.207,42.7,1.2l-.1,0-.095,0-.084,0H38.686Zm1.682-5.1h1.97l.067,0,.071,0,.074-.005.063-.006.06-.009.058-.011.055-.013a1.247,1.247,0,0,0,.131-.041.9.9,0,0,0,.112-.051.7.7,0,0,0,.095-.061.6.6,0,0,0,.078-.072,1.134,1.134,0,0,0,.077-.094,1.041,1.041,0,0,0,.064-.1,1.019,1.019,0,0,0,.052-.105,1.067,1.067,0,0,0,.04-.112q.02-.066.035-.132t.025-.13q.01-.065.015-.128t.005-.125q0-.062-.005-.125t-.015-.128q-.01-.065-.025-.13t-.035-.132a1.067,1.067,0,0,0-.04-.112,1.019,1.019,0,0,0-.052-.105,1.042,1.042,0,0,0-.064-.1,1.134,1.134,0,0,0-.077-.094.6.6,0,0,0-.078-.072.7.7,0,0,0-.094-.061.892.892,0,0,0-.111-.05,1.206,1.206,0,0,0-.128-.04l-.008,0-.054-.013L42.673,2.8l-.059-.008-.062-.006-.075-.005-.071,0-.067,0H40.368Zm-2.759,6.095H34.827l-.7-2.185H30.9l-.687,2.185H27.427L30.917.19h3.2Zm-2.052-1h.69L35.666,8.42v.66h-.486Zm-6.767,0h.689l.373-1.186h-.471V8.391ZM33.813,8.08l-.183-.575H31.393l-.181.575Zm.547-1.574h.7L33.388,1.19H31.65l-.011.036h1.729l-.342,1.088Zm-2.652,0h1.6L32.5,3.971Zm-1.733,0h.686l1.317-4.19-.343-1.078ZM2.685,11.269H0V.187H7.068V2.872H2.685V4.385H6.228V7.07H2.685ZM1,10.269h.685V6.07H5.228V5.386H1.685V1.872H6.068V1.188H1Zm10.234-.394q-.125,0-.253-.01t-.258-.03q-.13-.02-.263-.05t-.267-.069A2.337,2.337,0,0,1,9.9,9.609a2,2,0,0,1-.26-.139A1.788,1.788,0,0,1,9.414,9.3a1.7,1.7,0,0,1-.193-.2l0-.006q-.05-.063-.1-.131t-.086-.138q-.041-.071-.077-.146T8.89,8.524a1.75,1.75,0,0,1-.06-.173q-.026-.089-.043-.183t-.027-.194q-.009-.1-.01-.2T8.756,7.6q.006-.086.017-.17T8.8,7.263q.017-.08.041-.157T8.9,6.951q.03-.076.066-.147t.078-.138q.042-.067.089-.129l.011-.014q.038-.046.079-.09t.086-.085q.045-.042.093-.081t.1-.075q.05-.036.1-.069T9.71,6.06q.056-.03.114-.056t.119-.05l.289-.11,3.32,3.05-.449.365q-.043.035-.089.069t-.1.067l-.1.065-.108.063q-.057.032-.12.062t-.13.058q-.067.028-.14.054t-.149.05q-.057.018-.114.034l-.116.028-.117.023-.118.017-.112.011-.116.008-.12,0ZM10,8.471a.706.706,0,0,0,.089.091.811.811,0,0,0,.108.078,1.025,1.025,0,0,0,.128.065,1.379,1.379,0,0,0,.15.053q.1.029.2.051t.192.037q.095.015.187.022t.181.007h.093l.09,0,.087-.006.083-.008.071-.01.07-.014.069-.017.068-.02.007,0,.017-.005.017-.005.017-.005.016-.006L10.045,7.03l-.034.028-.032.029-.03.03-.027.031q-.02.027-.037.055t-.032.06q-.015.031-.028.065T9.8,7.4q-.012.04-.022.084t-.015.089q-.006.046-.009.094t0,.1q0,.055,0,.107t.013.1q.008.048.02.092a.766.766,0,0,0,.028.083q.018.045.039.088t.044.083q.023.041.049.079T10,8.471Z" transform="translate(0.48 4.234)" fill="rgba(0,0,0,0)"/>
  </g>
</svg>
